<?xml version="1.0" encoding="utf-8"?>
<!-- Generator: Adobe Illustrator 16.0.2, SVG Export Plug-In . SVG Version: 6.00 Build 0)  -->
<!DOCTYPE svg PUBLIC "-//W3C//DTD SVG 1.1//EN" "http://www.w3.org/Graphics/SVG/1.1/DTD/svg11.dtd">
<svg version="1.1" id="Layer_1" xmlns="http://www.w3.org/2000/svg" xmlns:xlink="http://www.w3.org/1999/xlink" x="0px" y="0px"
	 width="956.5px" height="168.75px" viewBox="0 0 956.5 168.75" enable-background="new 0 0 956.5 168.75" xml:space="preserve">
<g>
	<path fill="#FFFFFF" d="M214.054,142.096c0.263-3.852,0.526-7.57,0.791-11.158c0.263-3.586,0.5-7.066,0.712-10.443l2.848-37.348
		c0.317-2.848,0.58-5.446,0.791-7.793c0.21-2.347,0.382-4.641,0.515-6.884c0.131-2.241,0.263-4.51,0.396-6.805
		c0.131-2.294,0.277-4.839,0.435-7.636c-1.74-0.052-3.574-0.079-5.499-0.079c-1.926,0-3.944,0-6.054,0h-15.271
		c-0.581,0-0.937-0.223-1.068-0.672c-0.132-0.447-0.198-0.856-0.198-1.226v-0.554l8.704-22.867l-0.079-0.316
		c0-0.263,0.17-0.487,0.514-0.673c0.342-0.184,1.121-0.329,2.334-0.435c7.279-0.421,14.333-0.831,21.166-1.227
		c6.83-0.396,13.582-0.752,20.255-1.068c6.672-0.317,13.345-0.633,20.019-0.95c6.672-0.316,13.543-0.606,20.612-0.871
		c0.632,0,1.305,0.079,2.017,0.237c0.712,0.159,1.068,0.74,1.068,1.741c0,0.106-0.027,0.211-0.079,0.316
		c-0.054,0.107-0.079,0.212-0.079,0.317c-0.845,2.163-1.622,4.221-2.334,6.172c-0.712,1.952-1.412,3.877-2.097,5.775
		c-0.686,1.899-1.384,3.825-2.097,5.776c-0.712,1.952-1.491,4.01-2.334,6.172c-0.054,0.054-0.158,0.304-0.317,0.752
		c-0.158,0.449-0.395,0.949-0.712,1.503c-0.316,0.554-0.739,1.068-1.266,1.543c-0.528,0.474-1.187,0.739-1.978,0.791
		c-0.265-0.052-0.529-0.079-0.792-0.079c-0.264,0-0.553,0-0.87,0h-21.126c-0.265,2.69-0.514,5.539-0.752,8.545
		c-0.237,3.007-0.514,5.934-0.831,8.783l-5.776,61.796c-0.053,0.475-0.146,0.949-0.277,1.424c-0.133,0.475-0.489,0.82-1.068,1.029
		l-22.392,8.07c-0.581,0.211-1.345,0.475-2.294,0.791s-1.874,0.475-2.77,0.475c-0.739,0-1.385-0.186-1.938-0.553
		c-0.554-0.369-0.831-1.057-0.831-2.057V142.096z"/>
	<path fill="#FFFFFF" d="M316.125,143.678c-7.438,0-13.965-1.215-19.583-3.641c-5.618-2.426-10.326-5.658-14.124-9.691
		c-3.798-4.037-6.646-8.678-8.545-13.928c-1.899-5.248-2.848-10.693-2.848-16.338c0-5.644,0.922-11.011,2.769-16.102
		c1.846-5.09,4.431-9.653,7.754-13.688c3.324-4.035,7.305-7.411,11.948-10.128c4.641-2.716,9.758-4.549,15.35-5.499
		c0.843-0.052,1.266-0.237,1.266-0.554c0-0.58-0.066-1.12-0.198-1.622c-0.133-0.5-0.198-0.936-0.198-1.306
		c0-0.58,0.105-0.975,0.316-1.187c0.21-0.21,0.448-0.317,0.712-0.317c10.074,0,18.646,1.147,25.715,3.442
		c7.068,2.294,12.818,5.42,17.249,9.376c4.431,3.956,7.648,8.625,9.653,14.005c2.004,5.381,3.007,11.156,3.007,17.328
		c0,7.861-1.32,14.875-3.957,21.048c-2.638,6.17-6.238,11.393-10.8,15.666c-4.563,4.271-9.891,7.529-15.983,9.771
		C329.536,142.555,323.034,143.678,316.125,143.678z M301.486,99.209c0,2.848,0.303,5.672,0.91,8.467
		c0.606,2.797,1.608,5.328,3.007,7.596c1.396,2.268,3.23,4.102,5.499,5.498c2.267,1.4,5.09,2.098,8.466,2.098
		c2.426-0.105,4.55-0.645,6.37-1.623c1.819-0.975,3.388-2.24,4.708-3.797c1.318-1.555,2.414-3.311,3.284-5.262
		c0.871-1.951,1.555-3.967,2.057-6.053c0.5-2.084,0.856-4.127,1.068-6.132c0.21-2.004,0.317-3.824,0.317-5.46
		c0-2.742-0.41-5.432-1.227-8.07c-0.818-2.637-2.018-4.958-3.6-6.963c-1.583-2.004-3.548-3.626-5.895-4.867
		c-2.348-1.238-5.052-1.859-8.11-1.859c-3.165,0-5.829,0.937-7.992,2.809c-2.163,1.873-3.891,4.181-5.183,6.923
		c-1.293,2.744-2.229,5.632-2.809,8.665C301.776,94.212,301.486,96.889,301.486,99.209z"/>
	<path fill="#FFFFFF" d="M420.015,143.678c-7.438,0-13.966-1.215-19.584-3.641c-5.618-2.426-10.325-5.658-14.124-9.691
		c-3.797-4.037-6.646-8.678-8.545-13.928c-1.899-5.248-2.849-10.693-2.849-16.338c0-5.644,0.922-11.011,2.77-16.102
		c1.846-5.09,4.431-9.653,7.754-13.688c3.323-4.035,7.305-7.411,11.947-10.128c4.641-2.716,9.758-4.549,15.351-5.499
		c0.843-0.052,1.266-0.237,1.266-0.554c0-0.58-0.067-1.12-0.198-1.622c-0.133-0.5-0.198-0.936-0.198-1.306
		c0-0.58,0.105-0.975,0.317-1.187c0.209-0.21,0.447-0.317,0.712-0.317c10.075,0,18.646,1.147,25.716,3.442
		c7.067,2.294,12.817,5.42,17.249,9.376c4.432,3.956,7.647,8.625,9.653,14.005c2.004,5.381,3.007,11.156,3.007,17.328
		c0,7.861-1.319,14.875-3.956,21.048c-2.639,6.17-6.239,11.393-10.801,15.666c-4.563,4.271-9.89,7.529-15.983,9.771
		C433.426,142.555,426.924,143.678,420.015,143.678z M405.377,99.209c0,2.848,0.302,5.672,0.91,8.467
		c0.605,2.797,1.608,5.328,3.007,7.596c1.396,2.268,3.229,4.102,5.499,5.498c2.267,1.4,5.09,2.098,8.466,2.098
		c2.425-0.105,4.55-0.645,6.37-1.623c1.82-0.975,3.388-2.24,4.708-3.797c1.317-1.555,2.413-3.311,3.284-5.262
		c0.87-1.951,1.555-3.967,2.057-6.053c0.5-2.084,0.856-4.127,1.068-6.132c0.21-2.004,0.317-3.824,0.317-5.46
		c0-2.742-0.41-5.432-1.227-8.07c-0.819-2.637-2.018-4.958-3.6-6.963c-1.583-2.004-3.548-3.626-5.895-4.867
		c-2.348-1.238-5.052-1.859-8.11-1.859c-3.166,0-5.83,0.937-7.992,2.809c-2.164,1.873-3.891,4.181-5.183,6.923
		c-1.293,2.744-2.229,5.632-2.809,8.665C405.666,94.212,405.377,96.889,405.377,99.209z"/>
	<path fill="#FFFFFF" d="M479.675,110.129c0-0.051-0.015-0.105-0.04-0.158c-0.027-0.051-0.039-0.105-0.039-0.158
		c0-0.896,0.475-1.346,1.424-1.346c0.475,0,1.001,0.236,1.583,0.711c2.849,2.691,6.013,4.828,9.495,6.41
		c3.48,1.582,7.278,2.373,11.394,2.373c1.107,0,2.374-0.119,3.798-0.355c1.424-0.238,2.77-0.633,4.036-1.188
		c1.265-0.553,2.333-1.277,3.203-2.176c0.871-0.895,1.306-2.029,1.306-3.402c0-1.529-0.369-2.898-1.106-4.113
		c-0.741-1.213-1.716-2.242-2.929-3.086c-0.474-0.316-1.188-0.844-2.136-1.584c-0.95-0.736-2.031-1.582-3.244-2.531
		c-1.215-0.949-2.481-1.964-3.799-3.046c-1.318-1.081-2.571-2.109-3.758-3.086c-1.188-0.976-2.255-1.859-3.204-2.651
		c-0.95-0.792-1.662-1.397-2.137-1.82c-3.113-2.32-5.578-4.668-7.398-7.042c-1.819-2.374-3.204-4.853-4.154-7.438
		c-0.949-2.584-1.557-5.262-1.819-8.031c-0.265-2.77-0.396-5.709-0.396-8.822c0-4.642,1.107-9.046,3.323-13.214
		c2.216-4.166,5.341-7.794,9.376-10.879c4.035-3.086,8.874-5.539,14.52-7.359c5.644-1.82,11.92-2.73,18.832-2.73
		c0.843,0,2.108,0.093,3.797,0.277c1.688,0.186,3.548,0.489,5.579,0.91c2.029,0.423,4.101,1.003,6.211,1.741
		c2.108,0.739,4.035,1.689,5.775,2.849c0.58,0.423,1.041,0.845,1.385,1.266c0.343,0.423,0.566,1.082,0.673,1.978
		c0.264,4.272,0.475,8.48,0.633,12.62c0.158,4.142,0.368,8.533,0.634,13.174c0,0.897-0.187,1.491-0.554,1.78
		c-0.371,0.291-0.845,0.435-1.425,0.435c-0.581,0-1.028-0.158-1.346-0.475c-1.53-1.529-3.113-3.033-4.747-4.51
		c-1.636-1.477-3.351-2.782-5.143-3.917c-1.794-1.134-3.708-2.043-5.737-2.729c-2.03-0.685-4.232-1.029-6.605-1.029
		c-1.425,0-2.85,0.119-4.274,0.356c-1.424,0.238-2.717,0.673-3.876,1.306c-1.161,0.633-2.098,1.503-2.81,2.611
		c-0.712,1.107-1.067,2.506-1.067,4.193c0,1.794,0.223,3.351,0.672,4.668c0.448,1.319,1.568,2.559,3.363,3.719l18.989,12.897
		c3.482,2.48,6.303,4.946,8.467,7.398c2.162,2.453,3.85,4.894,5.064,7.319c1.212,2.427,2.043,4.814,2.491,7.161
		c0.447,2.349,0.673,4.655,0.673,6.923c0,3.693-0.606,7.176-1.819,10.445c-1.214,3.271-2.876,6.289-4.985,9.059
		c-2.11,2.77-4.576,5.25-7.397,7.438c-2.823,2.191-5.843,4.064-9.06,5.619c-3.219,1.555-6.556,2.74-10.01,3.561
		c-3.455,0.816-6.844,1.227-10.168,1.227c-2.585,0-5.131-0.041-7.635-0.119c-2.507-0.08-4.945-0.291-7.319-0.633
		c-2.374-0.344-4.668-0.871-6.884-1.584c-2.215-0.711-4.326-1.701-6.33-2.967L479.675,110.129z"/>
	<path fill="#FFFFFF" d="M677.644,142.412c-0.581,0.158-1.346,0.406-2.294,0.75c-0.95,0.344-1.874,0.516-2.77,0.516
		c-0.74,0-1.386-0.188-1.939-0.555c-0.553-0.369-0.83-1.002-0.83-1.898v-0.475c0.367-3.85,0.684-6.975,0.949-9.377
		c0.263-2.398,0.476-4.338,0.634-5.814s0.288-2.598,0.396-3.363c0.104-0.764,0.209-1.477,0.316-2.137
		c0.104-0.66,0.197-1.385,0.276-2.176s0.198-1.912,0.356-3.363c0.157-1.449,0.356-3.375,0.593-5.775
		c0.237-2.4,0.54-5.551,0.91-9.456c0.21-2.109,0.436-4.206,0.673-6.291c0.237-2.083,0.355-3.996,0.355-5.736
		c0-2.215-0.118-4.233-0.355-6.053c-0.237-1.82-0.661-3.375-1.266-4.668c-0.608-1.292-1.439-2.307-2.493-3.046
		c-1.056-0.738-2.401-1.107-4.034-1.107c-1.003,0-2.31,0.211-3.918,0.632c-1.609,0.423-3.232,1.175-4.865,2.255
		c-1.637,1.083-3.113,2.506-4.432,4.272c-1.319,1.768-2.164,3.996-2.531,6.687v0.316c-0.634,6.014-1.201,11.224-1.701,15.627
		c-0.503,4.406-0.938,8.189-1.307,11.355c-0.369,3.164-0.672,5.803-0.909,7.912c-0.237,2.111-0.436,3.891-0.594,5.342
		c-0.157,1.451-0.276,2.648-0.356,3.6c-0.078,0.949-0.118,1.848-0.118,2.689c0,0.424,0.012,0.779,0.04,1.068
		c0.025,0.291,0.039,0.541,0.039,0.752c0,0.424-0.197,0.779-0.593,1.068c-0.396,0.289-1.28,0.646-2.651,1.068l-18.594,5.381
		c-0.582,0.158-1.346,0.406-2.295,0.75s-1.874,0.516-2.77,0.516c-0.739,0-1.385-0.188-1.938-0.555
		c-0.554-0.369-0.83-1.002-0.83-1.898v-0.475c0.367-3.85,0.672-6.975,0.909-9.377c0.237-2.398,0.447-4.338,0.633-5.814
		c0.185-1.477,0.329-2.598,0.436-3.363c0.104-0.764,0.197-1.477,0.277-2.137c0.078-0.66,0.17-1.385,0.276-2.176
		c0.104-0.791,0.224-1.912,0.356-3.363c0.13-1.449,0.316-3.375,0.554-5.775s0.54-5.551,0.909-9.456
		c0.211-2.109,0.436-4.206,0.673-6.291c0.238-2.083,0.356-3.996,0.356-5.736c0-2.215-0.106-4.233-0.317-6.053
		c-0.211-1.82-0.593-3.375-1.146-4.668c-0.555-1.292-1.306-2.307-2.256-3.046c-0.948-0.738-2.163-1.107-3.639-1.107
		c-1.057,0-2.493,0.264-4.313,0.791c-1.82,0.528-3.64,1.398-5.459,2.611c-1.82,1.214-3.432,2.809-4.827,4.787
		c-1.398,1.978-2.204,4.418-2.413,7.319c-0.423,3.904-0.767,7.109-1.029,9.614c-0.266,2.507-0.475,4.563-0.633,6.172
		s-0.276,2.902-0.356,3.877c-0.078,0.977-0.146,1.887-0.197,2.73c-0.053,0.211-0.133,0.805-0.237,1.779
		c-0.106,0.979-0.226,2.137-0.356,3.482c-0.132,1.346-0.265,2.797-0.396,4.352c-0.133,1.557-0.251,3.006-0.356,4.352
		c-0.106,1.346-0.197,2.506-0.276,3.48c-0.079,0.979-0.118,1.572-0.118,1.781v1.424c0,0.529-0.027,0.979-0.08,1.346
		c-0.053,0.369-0.211,0.711-0.475,1.029c-0.265,0.316-0.646,0.607-1.146,0.869c-0.503,0.266-1.201,0.555-2.098,0.871l-20.729,7.359
		c-0.582,0.209-1.346,0.473-2.296,0.789c-0.949,0.318-1.873,0.477-2.769,0.477c-0.74,0-1.385-0.188-1.939-0.555
		c-0.554-0.369-0.831-1.002-0.831-1.898l7.122-80.708c0.158-1.74,0.355-2.939,0.594-3.6c0.237-0.659,0.831-1.094,1.779-1.305
		c4.8-0.95,9.705-1.912,14.718-2.888c5.011-0.976,9.916-2.228,14.717-3.758c0.422,0,0.673,0.066,0.752,0.198
		c0.079,0.132,0.119,0.331,0.119,0.593l-1.029,11.552c1.951-1.001,4.141-2.097,6.567-3.284c2.425-1.187,4.971-2.281,7.636-3.284
		c2.663-1.001,5.381-1.832,8.15-2.493c2.769-0.659,5.471-0.989,8.109-0.989c3.641,0,7.003,0.831,10.089,2.493
		c3.086,1.661,5.63,4.418,7.636,8.268c2.374-1.529,4.891-2.953,7.556-4.272c2.663-1.318,5.381-2.453,8.15-3.402
		c2.769-0.949,5.551-1.688,8.348-2.215c2.795-0.527,5.511-0.792,8.149-0.792c3.324,0,6.461,0.475,9.415,1.424
		c2.954,0.949,5.526,2.506,7.716,4.668c2.188,2.164,3.917,4.973,5.183,8.426c1.266,3.456,1.898,7.663,1.898,12.621
		c0,1.265-0.027,2.571-0.079,3.917c-0.053,1.345-0.158,2.729-0.316,4.153l-3.64,33.865c-0.265,2.215-0.424,4.262-0.475,6.133
		c-0.053,1.873-0.08,4.049-0.08,6.527c0,0.424,0.013,0.779,0.041,1.068c0.025,0.291,0.039,0.541,0.039,0.752
		c0,0.475-0.197,0.844-0.594,1.107c-0.396,0.264-1.279,0.607-2.65,1.029L677.644,142.412z"/>
	<path fill="#FFFFFF" d="M797.597,123.658c-0.054,0.213-0.08,0.41-0.08,0.594c0,0.186,0,0.355,0,0.514
		c0,1.32,0.21,2.414,0.634,3.283c0.421,0.871,0.882,1.584,1.385,2.139c0.5,0.553,0.962,1.002,1.384,1.344
		c0.423,0.344,0.634,0.646,0.634,0.91c0,0.74-0.792,1.424-2.374,2.057l-21.284,9.1c-0.054,0.051-0.238,0.08-0.555,0.08
		c-0.423,0-0.844-0.371-1.266-1.107c-0.423-0.74-0.831-1.676-1.226-2.811c-0.396-1.133-0.767-2.346-1.108-3.639
		c-0.345-1.293-0.646-2.492-0.91-3.602c-3.323,3.852-6.911,6.676-10.761,8.467c-3.852,1.793-7.675,2.691-11.473,2.691
		c-4.432,0-8.757-0.979-12.977-2.928c-4.222-1.951-7.966-4.734-11.235-8.348c-3.271-3.611-5.896-7.979-7.873-13.096
		c-1.979-5.115-2.968-10.865-2.968-17.25c0-7.542,1.095-14.425,3.284-20.65c2.188-6.224,5.155-11.578,8.901-16.063
		c3.745-4.483,8.11-7.952,13.096-10.405c4.984-2.453,10.271-3.679,15.863-3.679c3.956,0,7.701,0.805,11.236,2.414
		c3.533,1.609,6.884,3.679,10.049,6.211c0.316-1.583,0.5-2.849,0.554-3.798c0.052-0.95,0.17-1.688,0.356-2.216
		c0.184-0.526,0.54-0.882,1.068-1.068c0.525-0.184,1.396-0.329,2.61-0.435c3.799-0.527,7.582-1.015,11.354-1.464
		c3.771-0.447,7.715-0.777,11.829-0.989L797.597,123.658z M773.938,93.829c0.527-3.006,0.883-5.841,1.069-8.506
		c0.184-2.663,0.328-5.104,0.435-7.319c-0.845-0.633-1.755-1.292-2.729-1.978c-0.978-0.685-2.032-1.332-3.165-1.938
		c-1.136-0.606-2.322-1.094-3.561-1.464c-1.241-0.369-2.546-0.554-3.917-0.554c-2.849,0-5.235,0.924-7.16,2.77
		c-1.928,1.847-3.482,4.114-4.669,6.805c-1.187,2.69-2.031,5.539-2.532,8.545c-0.502,3.007-0.751,5.671-0.751,7.992
		c0,8.337,1.094,14.44,3.283,18.317c2.188,3.877,5.234,5.814,9.14,5.814c1.582,0,3.349-0.445,5.301-1.344
		c1.95-0.896,3.929-2.137,5.935-3.719L773.938,93.829z"/>
	<path fill="#FFFFFF" d="M880.281,75.156c-1.107-0.105-2.348-0.224-3.719-0.356c-1.373-0.131-2.823-0.198-4.353-0.198
		c-2.321,0-4.682,0.198-7.08,0.593c-2.402,0.396-4.63,1.175-6.688,2.334c-2.057,1.161-3.825,2.757-5.301,4.788
		c-1.479,2.031-2.427,4.655-2.849,7.873c-0.37,3.904-0.673,7.109-0.91,9.613c-0.236,2.506-0.408,4.563-0.514,6.172
		c-0.107,1.609-0.198,2.9-0.277,3.877s-0.146,1.887-0.198,2.729c0,0.213-0.039,0.793-0.118,1.742s-0.198,2.057-0.356,3.322
		c-0.157,1.266-0.304,2.641-0.435,4.115c-0.133,1.477-0.277,2.848-0.436,4.113c-0.158,1.268-0.276,2.375-0.356,3.324
		c-0.078,0.949-0.118,1.531-0.118,1.74c0,0.424,0.013,0.779,0.04,1.068c0.025,0.291,0.039,0.568,0.039,0.83
		c0,0.424-0.197,0.781-0.593,1.07c-0.396,0.289-1.28,0.619-2.651,0.988l-20.968,7.518c-0.582,0.209-1.345,0.473-2.295,0.789
		c-0.948,0.318-1.873,0.477-2.769,0.477c-0.741,0-1.385-0.188-1.939-0.555c-0.554-0.369-0.83-1.002-0.83-1.898l6.805-78.413
		c0.157-1.74,0.356-2.939,0.593-3.6c0.237-0.659,0.831-1.094,1.781-1.306c4.799-0.949,9.758-1.912,14.875-2.888
		c5.115-0.975,10.074-2.228,14.875-3.758c0.422,0,0.672,0.066,0.752,0.198c0.079,0.132,0.119,0.331,0.119,0.594
		c0,0.106-0.015,0.264-0.04,0.474c-0.028,0.212-0.106,0.687-0.237,1.424c-0.133,0.74-0.316,1.86-0.554,3.363
		c-0.238,1.503-0.568,3.6-0.989,6.291c2.425-1.899,5.104-3.64,8.031-5.223c2.927-1.582,5.867-2.94,8.822-4.075
		c2.953-1.133,5.802-2.03,8.545-2.69c2.742-0.659,5.143-0.989,7.201-0.989L880.281,75.156z"/>
	<path fill="#FFFFFF" d="M929.733,78.558c-0.739,5.539-1.438,11.065-2.097,16.576c-0.66,5.513-1.067,10.671-1.226,15.47
		c0,2.057,0.158,3.771,0.475,5.143c0.315,1.373,0.777,2.453,1.385,3.244c0.604,0.791,1.331,1.359,2.176,1.701
		c0.843,0.344,1.792,0.514,2.848,0.514c1.688,0,3.533-0.25,5.539-0.75c2.005-0.502,4.008-1.148,6.014-1.939
		c0.633-0.264,1.173-0.461,1.622-0.594c0.446-0.131,0.831-0.197,1.146-0.197c0.527,0,0.884,0.236,1.069,0.713
		c0.184,0.473,0.368,1.305,0.554,2.49c0.184,1.188,0.461,2.785,0.831,4.787c0.367,2.006,0.976,4.539,1.82,7.598
		c0.051,0.264,0.09,0.488,0.117,0.672c0.026,0.186,0.041,0.355,0.041,0.514c0,0.74-0.277,1.268-0.831,1.582
		c-0.555,0.316-1.465,0.688-2.729,1.109c-2.165,0.738-4.446,1.49-6.846,2.254c-2.401,0.764-4.774,1.465-7.12,2.098
		c-2.349,0.633-4.604,1.146-6.766,1.543c-2.164,0.395-4.063,0.594-5.697,0.594c-8.811,0-15.23-2.191-19.267-6.568
		c-4.035-4.377-6.054-11.051-6.054-20.018c0-1.529,0.053-3.098,0.159-4.709c0.104-1.607,0.237-3.283,0.396-5.023
		c0.526-5.273,0.988-10.273,1.385-14.995c0.396-4.72,0.803-9.244,1.227-13.57h-8.309c-2.849,0-4.905-0.119-6.171-0.356
		c-1.267-0.237-1.899-0.724-1.899-1.464c0-0.21,0.263-0.777,0.791-1.701c0.527-0.922,1.198-2.03,2.018-3.323
		c0.817-1.292,1.701-2.676,2.651-4.154c0.948-1.476,1.859-2.861,2.729-4.154c0.87-1.292,1.621-2.413,2.255-3.362
		c0.633-0.95,1.028-1.529,1.187-1.741h5.618c0.475-4.008,0.856-7.371,1.147-10.088c0.289-2.715,0.526-4.971,0.712-6.765
		c0.184-1.792,0.356-3.177,0.515-4.154c0.158-0.975,0.328-1.701,0.514-2.176c0.185-0.475,0.422-0.778,0.712-0.91
		c0.289-0.131,0.673-0.25,1.147-0.356c2.374-0.475,4.668-0.91,6.885-1.306c2.216-0.396,4.431-0.804,6.646-1.227
		c2.216-0.421,4.47-0.91,6.765-1.463c2.295-0.554,4.681-1.199,7.16-1.939c0.158,0,0.264-0.012,0.316-0.04
		c0.053-0.025,0.159-0.04,0.317-0.04c0.633,0,0.949,0.211,0.949,0.633v0.159c-0.266,2.901-0.672,6.937-1.226,12.106
		c-0.555,5.17-1.176,11.025-1.859,17.565h21.204c0.422,0,0.831,0.146,1.227,0.435c0.396,0.291,0.594,0.779,0.594,1.464
		c0,0.265-0.316,1.214-0.95,2.849c-0.632,1.636-1.531,3.772-2.689,6.409l-2.849,6.409c-0.369,0.791-0.752,1.372-1.147,1.74
		c-0.396,0.37-1.2,0.607-2.413,0.713H929.733z"/>
</g>
<linearGradient id="SVGID_1_" gradientUnits="userSpaceOnUse" x1="-256.1519" y1="17227.207" x2="-110.4482" y2="17227.207" gradientTransform="matrix(1.0938 0 0 1.0938 284.2344 -18758.1992)">
	<stop  offset="0" style="stop-color:#00F1FF"/>
	<stop  offset="0.231" style="stop-color:#00D8FF"/>
	<stop  offset="0.5138" style="stop-color:#00C0FF"/>
	<stop  offset="0.7773" style="stop-color:#00B2FF"/>
	<stop  offset="1" style="stop-color:#00ADFF"/>
</linearGradient>
<path fill="url(#SVGID_1_)" d="M163.432,84.057c0,44.007-35.674,79.682-79.682,79.682S4.068,128.063,4.068,84.057
	c0-44.007,35.675-79.682,79.682-79.682S163.432,40.049,163.432,84.057z"/>
<path fill="#FFFFFF" d="M131.539,36.707c-6.206-6.205-15.365-5.094-21.717-3.721c-8.129,1.762-18.063,5.585-29.564,10.011
	c-1.178,0.454-2.376,0.913-3.592,1.38c-0.055,0.021-0.11,0.043-0.165,0.066c-0.434,0.188-10.691,4.59-16.655,8.268
	C42.081,63.667,38.297,78.308,38.252,88.663c-0.022,5.037,0.827,10.176,2.52,15.318c-5.883,10.09-9.157,19.72-9.157,27.543
	c0,2.579,2.09,4.669,4.668,4.669c2.579,0,4.668-2.09,4.668-4.669c0-4.645,1.796-11.539,6.213-19.867
	c3.519,1.832,9.373,4.064,17.008,4.064c5.234,0,11.306-1.05,18.029-4.003c2.98-1.311,5.896-2.86,8.666-4.609
	c2.181-1.376,2.833-4.258,1.457-6.439c-1.376-2.181-4.259-2.833-6.441-1.456c-2.377,1.502-4.879,2.832-7.436,3.955
	c-12.679,5.568-22.083,2.644-26.478,0.475c2.571-3.85,5.651-7.91,9.31-12.126c11.158-12.853,31.375-31.217,64.802-46.677
	c0.72,1.528,0.896,4.219-1.764,9.409c-1.477,2.885-3.558,6.04-6.05,9.452c-0.031,0.012-0.063,0.023-0.095,0.039
	c-4.518,2.118-13.513,2.723-16.6,2.777c-2.579,0.044-4.634,2.169-4.591,4.746c0.042,2.553,2.124,4.592,4.667,4.592h0.08
	c0.64-0.012,3.71-0.085,7.518-0.524c-0.317,0.397-0.634,0.793-0.955,1.195c-1.674,2.093-3.397,4.249-5.138,6.46
	c-5.787,1.283-11.57,1.807-18.076,1.634c-0.042,0-0.083-0.001-0.125-0.001c-2.52,0-4.597,2.011-4.663,4.545
	c-0.068,2.578,1.965,4.724,4.544,4.792c0.888,0.023,1.765,0.034,2.632,0.034c6.872,0,13.116-0.739,19.453-2.293
	c0.05-0.013,0.098-0.028,0.146-0.042c0.084-0.024,0.167-0.047,0.25-0.074c0.067-0.023,0.131-0.05,0.197-0.076
	c0.077-0.03,0.153-0.061,0.229-0.095c0.068-0.031,0.132-0.063,0.198-0.096c0.07-0.036,0.139-0.072,0.208-0.114
	c0.065-0.037,0.129-0.078,0.194-0.117c0.063-0.042,0.126-0.083,0.188-0.129c0.064-0.045,0.125-0.094,0.187-0.144
	c0.057-0.043,0.115-0.09,0.17-0.14c0.062-0.054,0.123-0.111,0.18-0.169c0.05-0.049,0.101-0.097,0.148-0.149
	c0.061-0.063,0.117-0.13,0.173-0.198c0.032-0.039,0.068-0.074,0.098-0.114c2.058-2.631,4.112-5.2,6.1-7.685
	c7.208-9.016,13.433-16.803,17.043-23.848C137.284,49.419,136.917,42.084,131.539,36.707z M54.228,85.396
	c-2.27,2.615-4.393,5.255-6.358,7.894c-0.192-1.542-0.287-3.073-0.28-4.586c0.044-10.254,4.548-18.807,13.395-25.479
	c-0.046,1.894,1.066,3.706,2.929,4.45c0.569,0.229,1.156,0.335,1.733,0.335c1.853,0,3.606-1.109,4.337-2.935
	c1.758-4.396,2.971-6.521,4.754-9.598c2.736-1.277,4.926-2.229,5.36-2.417c1.188-0.457,2.359-0.906,3.513-1.349
	c9.919-3.818,18.806-7.236,25.914-9.065C82,57.329,64.499,73.567,54.228,85.396z"/>
</svg>
